<svg width="30" height="30" viewBox="0 0 30 30" fill="none" xmlns="http://www.w3.org/2000/svg">
<path d="M6.71875 26.3438C6.01385 26.3438 5.3168 26.224 4.62759 25.9844C3.93836 25.7448 3.33333 25.3542 2.8125 24.8125C3.54167 24.5625 4.0625 24.1979 4.375 23.7188C4.6875 23.2396 4.84375 22.5938 4.84375 21.7813C4.84375 20.8698 5.16329 20.0951 5.80237 19.457C6.44148 18.819 7.21752 18.5 8.1305 18.5C9.0435 18.5 9.81771 18.819 10.4531 19.457C11.0885 20.0951 11.4062 20.8698 11.4062 21.7813C11.4062 23.1146 10.9531 24.2083 10.0469 25.0625C9.14062 25.9167 8.03125 26.3438 6.71875 26.3438ZM6.71875 24.4688C7.44792 24.4688 8.09896 24.2083 8.67188 23.6875C9.24479 23.1667 9.53125 22.5313 9.53125 21.7813C9.53125 21.3646 9.40104 21.0261 9.14062 20.7656C8.88021 20.5052 8.54167 20.375 8.125 20.375C7.70833 20.375 7.36979 20.5052 7.10938 20.7656C6.84896 21.0261 6.71875 21.3646 6.71875 21.7813C6.71875 22.5938 6.63021 23.1927 6.45312 23.5781C6.27604 23.9636 5.94792 24.1979 5.46875 24.2813C5.59375 24.3021 5.80208 24.3386 6.09375 24.3906C6.38542 24.4427 6.59375 24.4688 6.71875 24.4688ZM13.9062 18.9375L11.0938 15.9688L22.8438 4.21877C23.1354 3.9271 23.4583 3.77606 23.8125 3.76564C24.1667 3.75522 24.5 3.90627 24.8125 4.21877L25.7188 5.12502C26.0312 5.43752 26.1823 5.77606 26.1719 6.14064C26.1615 6.50522 26.0104 6.83335 25.7188 7.12502L13.9062 18.9375Z" fill="white"/>
</svg>
