<svg width="220" height="220" viewBox="0 0 220 220" fill="none" xmlns="http://www.w3.org/2000/svg">
<path d="M30.3241 116.96C26.6229 113.259 26.6229 107.258 30.3241 103.557L103.457 30.4245C107.158 26.7233 113.158 26.7233 116.86 30.4245C120.561 34.1256 120.561 40.1264 116.86 43.8275L87.045 73.6421L146.618 133.215L176.432 103.4C180.133 99.6991 186.134 99.6991 189.835 103.4C193.536 107.101 193.536 113.102 189.835 116.803L116.703 189.936C113.002 193.637 107.001 193.637 103.3 189.936C99.5986 186.235 99.5986 180.234 103.3 176.533L133.215 146.618L73.642 87.0451L43.7271 116.96C40.026 120.661 34.0252 120.661 30.3241 116.96Z" fill="#101010"/>
<path fill-rule="evenodd" clip-rule="evenodd" d="M2.77586 217.224C-0.925285 213.523 -0.925285 207.522 2.77586 203.821L203.821 2.77586C207.522 -0.92529 213.523 -0.925283 217.224 2.77586C220.925 6.477 220.925 12.4777 217.224 16.1789L16.1789 217.224C12.4777 220.925 6.477 220.925 2.77586 217.224Z" fill="#101010"/>
</svg>
