<svg width="295" height="435" viewBox="0 0 295 435" fill="none" xmlns="http://www.w3.org/2000/svg">
<rect y="82.3137" width="16" height="400" rx="1" transform="rotate(-45 0 82.3137)" fill="#101010"/>
<path d="M96.7 297.6C93.9 297.6 91.5 296.3 89.5 293.7C87.5 290.9 86.5 288.2 86.5 285.6C86.5 284.8 86.6 284.1 86.8 283.5C86.8 282.7 86.9 281.9 87.1 281.1C87.5 280.3 87.8 279.6 88 279C88.2 278.2 88.4 277.4 88.6 276.6L89.5 271.2L90.7 266.4C91.3 264.4 92.2 261.6 93.4 258C94.6 254.2 95.8 250.6 97 247.2C98.4 243.8 99.3 241.6 99.7 240.6C101.7 235.6 104.3 230.6 107.5 225.6C108.9 223.2 110.2 220.8 111.4 218.4C112.8 215.8 114.1 213.2 115.3 210.6C115.7 209.6 116.2 208.6 116.8 207.6C117.6 206.4 118.4 205.3 119.2 204.3C120 203.3 120.7 202.3 121.3 201.3C121.9 200.3 122.6 199.3 123.4 198.3C123.6 197.9 123.7 197.6 123.7 197.4C123.9 197.2 124 197 124 196.8V196.5C124 196.7 124.1 196.8 124.3 196.8C124.7 194.2 125.4 191.9 126.4 189.9C127.6 187.9 128.9 186 130.3 184.2C131.9 181.8 133.5 179.6 135.1 177.6C136.9 175.4 138.3 173.7 139.3 172.5C140.9 170.3 141.8 167.1 142 162.9C142.4 158.7 143.2 155.8 144.4 154.2L148.9 149.7L153.1 145.2C153.9 144.4 154.6 143.6 155.2 142.8C155.8 141.8 156.4 140.9 157 140.1C157.8 138.3 158.9 136.6 160.3 135C161.7 133.4 163.1 131.9 164.5 130.5C165.9 128.9 167.3 127.4 168.7 126C169.5 125 170.2 124.1 170.8 123.3C171.6 122.3 172.3 121.3 172.9 120.3C173.5 119.3 174.1 118.4 174.7 117.6C175.5 116.6 176.3 115.7 177.1 114.9C179.9 111.5 182.9 108.4 186.1 105.6C189.3 102.6 192.6 99.6 196 96.6C197.6 95.2 199.2 93.7 200.8 92.1C202.6 90.5 204.4 88.9 206.2 87.3C209.8 83.7 213.5 81.2 217.3 79.8L224.2 77.1C225.2 76.7 226.2 76.3 227.2 75.9C228.4 75.5 229.5 74.9 230.5 74.1C231.9 74.7 233.9 75.7 236.5 77.1C239.3 78.3 241.8 79.8 244 81.6C246.2 83.2 247.3 84.9 247.3 86.7C247.3 87.5 247 88.4 246.4 89.4C245.6 90.8 243.3 92.3 239.5 93.9C235.9 95.3 233.3 96.5 231.7 97.5C229.3 98.9 227.2 100.7 225.4 102.9C224.4 103.9 223.3 104.8 222.1 105.6C220.9 106.4 219.6 107.2 218.2 108H217.6C216.4 109.2 214.6 110.5 212.2 111.9L206.2 115.2C205.4 115.6 204.8 116 204.4 116.4C204.2 116.6 204 116.8 203.8 117C203.6 117.2 203.4 117.6 203.2 118.2C203 118.6 202.7 119.2 202.3 120C202.3 120.2 202.2 120.3 202 120.3C201.8 120.3 201.7 120.4 201.7 120.6L200.8 121.2L200.5 121.5L202.3 121.2L202.6 122.7C202.6 123.3 202.3 123.6 201.7 123.6C200.3 125 198.9 126.3 197.5 127.5C196.3 128.5 195 129.7 193.6 131.1L185.5 139.2C184.1 140.6 183 142.2 182.2 144C181 146 179.5 147.2 177.7 147.6V147.9C177.7 149.9 176.2 152.3 173.2 155.1C170.2 157.7 167.6 160.1 165.4 162.3C164.2 163.1 163.4 164 163 165H162.7V165.3C162.7 166.9 161.8 168.9 160 171.3C158.2 173.5 156.2 174.6 154 174.6V170.1L154.9 169.5C155.7 169.3 156.2 168.9 156.4 168.3H158.2L158.5 168H158.2C160.6 164 161.5 161.8 160.9 161.4C160.5 161 159.2 161.9 157 164.1C155 166.1 152.6 168.9 149.8 172.5C147.2 176.1 144.9 179.9 142.9 183.9C142.7 186.3 141.4 188.7 139 191.1C137 193.5 135.2 195.9 133.6 198.3V198.6C132.2 201.2 130.8 203.7 129.4 206.1C128 208.3 126.6 210.5 125.2 212.7C123.8 214.9 122.5 217.1 121.3 219.3C120.1 221.3 119 223.4 118 225.6C115.8 229.8 113.7 234.3 111.7 239.1C109.9 243.7 108 249 106 255L100.6 272.1C99.8 274.9 99 277.9 98.2 281.1C97.6 284.1 97.2 287.2 97 290.4C97.2 290 97.4 289.7 97.6 289.5C98 289.1 98.3 288.7 98.5 288.3L100.3 285.6C101.3 284 102.3 282.4 103.3 280.8C104.3 279 105.3 277.2 106.3 275.4C107.3 273.8 108.4 272.2 109.6 270.6C110.8 269 111.9 267.5 112.9 266.1C115.1 263.3 116.6 261.9 117.4 261.9C118 261.9 118.3 262.2 118.3 262.8C118.3 263.6 117.3 265.8 115.3 269.4C113.5 273 111.3 277 108.7 281.4C106.1 285.8 103.6 289.6 101.2 292.8C99 296 97.5 297.6 96.7 297.6ZM190 130.2C190.8 129.8 191.5 129.3 192.1 128.7C192.9 128.1 193.6 127.6 194.2 127.2C195.4 126.2 196 125.5 196 125.1L195.1 123.6C194.1 124.4 193 125.4 191.8 126.6C190.8 127.8 190.2 129 190 130.2ZM184.3 133.5C185.1 133.1 186 132.7 187 132.3C188 131.7 189 131.1 190 130.5L187.6 129.9L184.3 133.5ZM186.4 324.6C182.4 324.6 179 323.4 176.2 321C173.4 318.6 170.8 316 168.4 313.2C167.2 312 166.3 311.2 165.7 310.8C164.7 310.2 164.2 309.1 164.2 307.5L165.7 306.9V306.6C162.1 301.8 159.9 296.5 159.1 290.7C158.5 287.7 157.8 284.8 157 282C156.4 279 155.7 276.2 154.9 273.6H155.5L155.2 273.3C154.8 272.1 154.6 271 154.6 270V267C154.6 264.6 154.7 263.1 154.9 262.5C154.7 262.7 154.3 262.8 153.7 262.8H153.4V262.2H152.8C153 261.6 153.1 260.7 153.1 259.5V257.4C153.1 256.8 153 255.2 152.8 252.6C152.8 249.8 152.6 246.7 152.2 243.3C152 239.9 151.6 237 151 234.6C150.4 232.2 149.6 231 148.6 231C148.2 231 147.1 231.9 145.3 233.7C143.5 235.5 141.5 237.6 139.3 240C137.1 242.2 135.1 244.3 133.3 246.3C131.7 248.1 130.8 249.2 130.6 249.6C129.4 250.8 128.3 251.9 127.3 252.9C126.3 253.7 125.2 254.5 124 255.3V252.6C124.6 251.6 125.2 250.7 125.8 249.9C126.4 248.9 126.9 247.9 127.3 246.9C127.7 245.9 128.2 244.9 128.8 243.9C129.4 242.9 130 242 130.6 241.2C131.2 240.4 131.8 239.7 132.4 239.1C133 238.3 133.7 237.5 134.5 236.7C135.1 236.1 135.7 235.5 136.3 234.9C136.9 234.3 137.4 233.6 137.8 232.8C139.2 231.4 140.4 229.7 141.4 227.7C142.4 225.7 143.6 224 145 222.6C146.6 220.4 149 217.5 152.2 213.9C155.6 210.3 158.4 208.2 160.6 207.6L167.8 205.8H169.3C169.5 206.6 169.8 207.5 170.2 208.5C170.6 209.5 171 210.7 171.4 212.1C172.2 214.5 172.6 216.6 172.6 218.4C172.6 221.8 172.6 225.2 172.6 228.6C172.8 231.8 172.9 235.1 172.9 238.5V261.6C172.9 262.4 172.7 263.4 172.3 264.6C172.5 265.2 172.6 265.8 172.6 266.4C172.8 266.8 172.9 267.3 172.9 267.9H173.2V268.2L175 267.6C175 271.2 175 274.4 175 277.2C175.2 280 176.1 283.1 177.7 286.5C178.3 287.1 178.6 287.7 178.6 288.3C178.6 288.7 178.4 288.9 178 288.9V289.5H176.2C176 289.5 175.7 289.7 175.3 290.1H175C175 291.1 175.1 291.7 175.3 291.9V293.7L177.7 292.2C178.3 297.6 180 302.5 182.8 306.9C185.8 311.3 189.9 313.5 195.1 313.5H196.3C196.5 313.3 196.8 313.2 197.2 313.2L200.2 311.4C200.8 311 201.4 310.5 202 309.9C202.6 309.5 203.3 309.1 204.1 308.7C205.3 307.7 206.4 306.6 207.4 305.4C208.4 304.2 208.9 302.1 208.9 299.1C209.3 300.3 209.6 301.2 209.8 301.8C210 302.6 210.2 303.2 210.4 303.6V304.5C210.4 305.9 210 307.1 209.2 308.1C208.4 309.3 207.6 310.4 206.8 311.4C204.4 314.8 201.5 317.8 198.1 320.4C194.7 323.2 190.8 324.6 186.4 324.6ZM118.9 260.1C118.1 260.1 117.7 259.7 117.7 258.9C117.7 258.5 118 257.7 118.6 256.5C119.4 255.3 120.3 254.7 121.3 254.7C122.1 254.7 122.5 255.4 122.5 256.8C122.5 259 121.3 260.1 118.9 260.1Z" fill="#101010"/>
</svg>
