<svg width="300" height="300" viewBox="0 0 300 300" fill="none" xmlns="http://www.w3.org/2000/svg">
<path fill-rule="evenodd" clip-rule="evenodd" d="M3.78526 277.938C-1.26175 282.985 -1.26175 291.168 3.78526 296.215C8.83227 301.262 17.0151 301.262 22.0621 296.215L150 168.277L181.657 199.933L140.864 240.727C135.816 245.774 135.816 253.957 140.864 259.004C145.911 264.051 154.093 264.051 159.14 259.004L258.866 159.277C263.913 154.23 263.913 146.048 258.866 141.001C253.819 135.954 245.637 135.954 240.59 141.001L199.934 181.657L168.277 150L296.215 22.0621C301.262 17.0151 301.262 8.83227 296.215 3.78526C291.168 -1.26175 282.985 -1.26176 277.938 3.78526L150 131.723L118.698 100.421L159.354 59.7643C164.401 54.7173 164.401 46.5345 159.354 41.4875C154.307 36.4405 146.124 36.4405 141.077 41.4875L41.3509 141.214C36.3039 146.261 36.3039 154.443 41.3509 159.49C46.3979 164.537 54.5807 164.537 59.6278 159.49L100.421 118.697L131.723 150L3.78526 277.938ZM69.7881 50.403C69.7881 61.1093 61.1089 69.7885 50.4026 69.7885C39.6963 69.7885 31.0171 61.1093 31.0171 50.403C31.0171 39.6966 39.6963 31.0174 50.4026 31.0174C61.1089 31.0174 69.7881 39.6966 69.7881 50.403ZM249.427 268.813C260.134 268.813 268.813 260.133 268.813 249.427C268.813 238.721 260.134 230.042 249.427 230.042C238.721 230.042 230.042 238.721 230.042 249.427C230.042 260.133 238.721 268.813 249.427 268.813Z" fill="#101010"/>
</svg>
