<svg width="33" height="26" viewBox="0 0 33 26" fill="none" xmlns="http://www.w3.org/2000/svg">
<g clip-path="url(#clip0_66_313)">
<path d="M30.6178 3.00122H2.38219C1.06734 3.00122 0 4.05239 0 5.34224V20.6528C0 21.9477 1.06734 22.9989 2.38219 22.9989H30.623C31.9378 22.9989 33.0052 21.9477 33 20.6579V5.34224C33 4.05239 31.9327 3.00122 30.6178 3.00122ZM17.4539 18.3118H14.2828V12.218L11.1117 16.1231L7.94062 12.218V18.3118H4.75922V7.68833H7.93031L11.1014 11.5934L14.2725 7.68833H17.4436V18.3118H17.4539ZM24.4303 18.4692L19.6711 13H22.8422V7.68833H26.0133V13H29.1844L24.4303 18.4692Z" fill="white"/>
</g>
<defs>
<clipPath id="clip0_66_313">
<rect width="33" height="26" fill="white"/>
</clipPath>
</defs>
</svg>
