<svg width="30" height="30" viewBox="0 0 30 30" fill="none" xmlns="http://www.w3.org/2000/svg">
<path d="M5.625 24.375H18.125V18.125H24.375V5.625H5.625V24.375ZM5.625 26.25C5.10938 26.25 4.66797 26.0664 4.30078 25.6992C3.93359 25.332 3.75 24.8906 3.75 24.375V5.625C3.75 5.10938 3.93359 4.66797 4.30078 4.30078C4.66797 3.93359 5.10938 3.75 5.625 3.75H24.375C24.8906 3.75 25.332 3.93359 25.6992 4.30078C26.0664 4.66797 26.25 5.10938 26.25 5.625V18.75L18.75 26.25H5.625ZM9.375 16.875V15H14.6875V16.875H9.375ZM9.375 11.875V10H20.625V11.875H9.375Z" fill="white"/>
</svg>
