<svg width="60" height="60" viewBox="0 0 60 60" fill="none" xmlns="http://www.w3.org/2000/svg">
<path d="M20.0625 50C19.0625 50 18.1875 49.625 17.4375 48.875C16.6875 48.125 16.3125 47.25 16.3125 46.25V40H24.0625V32.0625C22.4792 32.1875 20.8958 31.9688 19.3125 31.4062C17.7292 30.8438 16.3125 29.9583 15.0625 28.75V25.125H11.9375L3.75 16.9375C5.25 15.5208 7.04167 14.3646 9.125 13.4688C11.2083 12.5729 13.3333 12.125 15.5 12.125C16.75 12.125 18.1771 12.3229 19.7812 12.7188C21.3854 13.1146 22.8125 13.75 24.0625 14.625V10H52.5V43.4375C52.5 45.2708 51.8646 46.8229 50.5938 48.0938C49.3229 49.3646 47.7708 50 45.9375 50H20.0625ZM27.8125 40H43.125V43.4375C43.125 44.2708 43.3854 44.9479 43.9062 45.4688C44.4271 45.9896 45.1042 46.25 45.9375 46.25C46.7708 46.25 47.4479 45.9896 47.9688 45.4688C48.4896 44.9479 48.75 44.2708 48.75 43.4375V13.75H27.8125V17.3125L42.875 32.375V35.0625H40.1875L32.3125 27.1875L31.25 28.4375C30.7083 29.0625 30.1667 29.5417 29.625 29.875C29.0833 30.2083 28.4792 30.5208 27.8125 30.8125V40ZM13.625 21.375H18.8125V26.9375C19.5208 27.3958 20.2188 27.7396 20.9062 27.9688C21.5938 28.1979 22.2917 28.3125 23 28.3125C24.0417 28.3125 25.1042 28.0312 26.1875 27.4688C27.2708 26.9062 28.0625 26.3333 28.5625 25.75L29.625 24.5L25.3125 20.1875C23.9792 18.8542 22.4792 17.8021 20.8125 17.0312C19.1458 16.2604 17.375 15.875 15.5 15.875C14.375 15.875 13.3542 16.0104 12.4375 16.2812C11.5208 16.5521 10.5833 16.9167 9.625 17.375L13.625 21.375ZM39.375 43.75H20.0625V46.25H40.25C40 46 39.7917 45.6562 39.625 45.2188C39.4583 44.7812 39.375 44.2917 39.375 43.75Z" fill="black"/>
</svg>
