<svg width="30" height="30" viewBox="0 0 30 30" fill="none" xmlns="http://www.w3.org/2000/svg">
<path d="M26.25 8.65625V24.375C26.25 24.875 26.0625 25.3125 25.6875 25.6875C25.3125 26.0625 24.875 26.25 24.375 26.25H5.625C5.125 26.25 4.6875 26.0625 4.3125 25.6875C3.9375 25.3125 3.75 24.875 3.75 24.375V5.625C3.75 5.125 3.9375 4.6875 4.3125 4.3125C4.6875 3.9375 5.125 3.75 5.625 3.75H21.3438L26.25 8.65625ZM24.375 9.5L20.5 5.625H5.625V24.375H24.375V9.5ZM14.9927 22.3438C15.8934 22.3438 16.6615 22.0285 17.2969 21.398C17.9323 20.7675 18.25 20.0018 18.25 19.1011C18.25 18.2004 17.9347 17.4323 17.3042 16.7969C16.6737 16.1615 15.9081 15.8438 15.0073 15.8438C14.1066 15.8438 13.3385 16.159 12.7031 16.7895C12.0677 17.42 11.75 18.1857 11.75 19.0864C11.75 19.9871 12.0653 20.7552 12.6958 21.3906C13.3263 22.026 14.0919 22.3438 14.9927 22.3438ZM7.28125 11.75H18.4688V7.28125H7.28125V11.75ZM5.625 9.5V24.375V5.625V9.5Z" fill="white"/>
</svg>
