<?xml version="1.0" standalone="no"?>
<!DOCTYPE svg PUBLIC "-//W3C//DTD SVG 20010904//EN"
 "http://www.w3.org/TR/2001/REC-SVG-20010904/DTD/svg10.dtd">
<svg version="1.0" xmlns="http://www.w3.org/2000/svg"
 width="512.000000pt" height="512.000000pt" viewBox="0 0 512.000000 512.000000"
 preserveAspectRatio="xMidYMid meet">
<metadata>
Created by potrace 1.14, written by Peter Selinger 2001-2017
</metadata>
<g transform="translate(0.000000,512.000000) scale(0.100000,-0.100000)"
fill="#000000" stroke="none">
<path d="M0 2560 l0 -2560 2560 0 2560 0 0 2560 0 2560 -2560 0 -2560 0 0
-2560z m3470 1401 c60 -31 90 -60 90 -86 0 -29 -23 -49 -92 -79 -31 -14 -78
-44 -105 -68 -26 -24 -92 -69 -146 -101 -56 -34 -98 -65 -99 -75 0 -9 -2 -22
-2 -28 -1 -6 -44 -53 -96 -105 -105 -104 -145 -151 -165 -189 -7 -14 -38 -46
-68 -72 -31 -26 -65 -68 -78 -95 -13 -26 -35 -54 -49 -60 -22 -11 -25 -10 -28
8 -3 14 8 32 32 54 42 38 53 79 14 49 -43 -33 -109 -119 -141 -184 -17 -36
-43 -81 -58 -100 -14 -19 -34 -51 -44 -70 -10 -19 -45 -75 -77 -125 -33 -49
-80 -132 -105 -184 -76 -160 -209 -578 -190 -598 5 -5 26 25 105 155 36 59 89
118 98 109 15 -15 -128 -269 -188 -334 -17 -18 -24 -20 -50 -11 -60 21 -81 92
-57 195 20 91 110 358 138 413 71 141 147 280 178 327 18 29 40 71 48 93 8 22
48 86 89 141 44 59 77 114 80 132 3 18 8 50 11 71 5 30 21 54 64 100 32 34 70
80 84 102 14 23 50 68 79 100 29 33 73 85 96 116 43 59 315 315 374 353 50 31
181 82 198 75 8 -3 35 -16 60 -29z m-670 -1326 c11 -31 15 -100 17 -305 2
-166 7 -266 13 -268 5 -2 10 -28 10 -57 0 -30 7 -75 16 -101 15 -43 15 -48 0
-56 -19 -11 -21 -38 -3 -38 6 0 20 -27 29 -59 11 -36 30 -73 50 -94 39 -41
100 -62 132 -45 42 21 88 61 107 92 l19 31 0 -36 c0 -30 -10 -47 -61 -103 -34
-37 -75 -74 -93 -83 -33 -17 -123 -21 -149 -7 -37 21 -157 148 -149 156 6 6 0
27 -15 54 -32 56 -83 268 -83 340 0 30 -4 54 -10 54 -6 0 -10 31 -10 73 -1
103 -18 219 -34 236 -17 16 -7 24 -165 -144 -47 -49 -86 -85 -88 -79 -7 20 47
113 98 171 27 31 64 82 82 112 43 76 146 176 194 189 62 17 76 11 93 -33z
m-490 -465 c0 -11 -7 -23 -15 -27 -21 -8 -28 1 -20 26 8 27 35 27 35 1z"/>
<path d="M3018 3483 c-31 -36 -31 -46 0 -24 18 12 32 27 32 32 0 15 -16 11
-32 -8z"/>
<path d="M2949 3423 c-13 -15 -12 -15 9 -4 23 12 28 21 13 21 -5 0 -15 -7 -22
-17z"/>
</g>
</svg>
