<?xml version="1.0" standalone="no"?>
<!DOCTYPE svg PUBLIC "-//W3C//DTD SVG 20010904//EN"
 "http://www.w3.org/TR/2001/REC-SVG-20010904/DTD/svg10.dtd">
<svg version="1.0" xmlns="http://www.w3.org/2000/svg"
 width="512.000000pt" height="512.000000pt" viewBox="0 0 512.000000 512.000000"
 preserveAspectRatio="xMidYMid meet">
<metadata>
Created by potrace 1.14, written by Peter Selinger 2001-2017
</metadata>
<g transform="translate(0.000000,512.000000) scale(0.100000,-0.100000)"
fill="#000000" stroke="none">
<path d="M0 2560 l0 -2560 2560 0 2560 0 0 2560 0 2560 -2560 0 -2560 0 0
-2560z m3980 1415 c18 -18 25 -36 25 -65 0 -40 -6 -46 -653 -693 l-652 -652
177 -177 178 -178 225 225 c241 240 246 243 309 211 32 -17 51 -54 51 -99 0
-29 -50 -82 -518 -549 l-517 -518 -42 0 c-57 0 -92 31 -100 88 l-6 43 226 227
227 227 -178 178 -177 177 -652 -652 c-647 -647 -653 -653 -693 -653 -30 0
-47 7 -67 28 -21 20 -28 37 -28 67 0 40 6 46 653 693 l652 652 -175 175 -175
175 -223 -223 c-219 -218 -224 -222 -264 -222 -57 0 -92 31 -100 88 l-6 44
524 524 c558 558 539 542 604 512 32 -15 55 -56 55 -99 0 -29 -24 -57 -222
-256 l-223 -223 175 -175 175 -175 650 649 c357 357 657 651 665 655 27 10 75
-4 100 -29z"/>
</g>
</svg>
